<?xml version="1.0" encoding="UTF-8"?>
<svg width="328px" height="488px" viewBox="0 0 328 488" version="1.1" xmlns="http://www.w3.org/2000/svg" xmlns:xlink="http://www.w3.org/1999/xlink">
    <!-- Generator: Sketch 59.1 (86144) - https://sketch.com -->
    <title>Back</title>
    <desc>Created with Sketch.</desc>
    <defs>
        <filter x="-3.8%" y="-2.5%" width="107.5%" height="105.0%" filterUnits="objectBoundingBox" id="filter-1">
            <feOffset dx="0" dy="2" in="SourceAlpha" result="shadowOffsetOuter1"></feOffset>
            <feGaussianBlur stdDeviation="2" in="shadowOffsetOuter1" result="shadowBlurOuter1"></feGaussianBlur>
            <feColorMatrix values="0 0 0 0 0   0 0 0 0 0   0 0 0 0 0  0 0 0 0.5 0" type="matrix" in="shadowBlurOuter1" result="shadowMatrixOuter1"></feColorMatrix>
            <feMerge>
                <feMergeNode in="shadowMatrixOuter1"></feMergeNode>
                <feMergeNode in="SourceGraphic"></feMergeNode>
            </feMerge>
        </filter>
        <path d="M308,0 C314.627417,-1.21743675e-15 320,5.372583 320,12 L320,468 C320,474.627417 314.627417,480 308,480 L12,480 C5.372583,480 8.11624501e-16,474.627417 0,468 L0,42.676 L42.676,0 L308,0 Z" id="path-2"></path>
        <filter x="0.0%" y="0.0%" width="100.0%" height="100.0%" filterUnits="objectBoundingBox" id="filter-4">
            <feOffset dx="0" dy="0" in="SourceAlpha" result="shadowOffsetOuter1"></feOffset>
            <feComposite in="shadowOffsetOuter1" in2="SourceAlpha" operator="out" result="shadowOffsetOuter1"></feComposite>
            <feColorMatrix values="0 0 0 0 0   0 0 0 0 0   0 0 0 0 0  0 0 0 0.5 0" type="matrix" in="shadowOffsetOuter1"></feColorMatrix>
        </filter>
    </defs>
    <g id="Symbols" stroke="none" stroke-width="1" fill="none" fill-rule="evenodd">
        <g id="Card/Default" transform="translate(4.000000, 2.000000)">
            <g id="Back" filter="url(#filter-1)">
                <mask id="mask-3" fill="white">
                    <use xlink:href="#path-2"></use>
                </mask>
                <g>
                    <use fill="black" fill-opacity="1" filter="url(#filter-4)" xlink:href="#path-2"></use>
                    <path stroke="#1698D9" stroke-width="4" d="M43.5044271,2 L2,43.5044271 L2,468 C2,473.522847 6.4771525,478 12,478 L308,478 C313.522847,478 318,473.522847 318,468 L318,12 C318,6.4771525 313.522847,2 308,2 L43.5044271,2 Z" stroke-linejoin="square" fill="#F2F2F2" fill-rule="evenodd"></path>
                </g>
            </g>
        </g>
    </g>
</svg>